# xmcd
#
# Track frame offsets:
#	182
#	14175
#	28435
#	41197
#	56980
#	73342
#	87587
#	105480
#	117517
#	133405
#	147702
#	163972
#
# Disc length: 2424 seconds
#
# Revision: 6
# Processed by: cddbd v1.5.2PL0 Copyright (c) Steve Scherf et al.
# Submitted via: EZCDAudioConverter 4.0.5.1
#
DISCID=d209760c
DTITLE=Emmylou Harris - Profile: Best Of Emmylou Harris
DYEAR=1978
DGENRE=Country
TTITLE0=One Of These Days
TTITLE1=Sweet Dreams
TTITLE2=To Daddy
TTITLE3=(You Never Can Tell) C'est La Vie
TTITLE4=Making Believe
TTITLE5=Easy From Now On
TTITLE6=Together Again
TTITLE7=If I Could Only Win Your Love
TTITLE8=Too Far Gone
TTITLE9=Two More Bottles Of Wine
TTITLE10=Boulder To Birmingham
TTITLE11=Hello Stranger
EXTD=
EXTT0=
EXTT1=
EXTT2=
EXTT3=
EXTT4=
EXTT5=
EXTT6=
EXTT7=
EXTT8=
EXTT9=
EXTT10=
EXTT11=
PLAYORDER=
